<svg xmlns="http://www.w3.org/2000/svg" width="512" height="512" viewBox="0 0 16 16" fill="currentColor"><path fill="currentColor" d="M5.1 4.8a.499.499 0 0 1 .471-.795a.5 0 0 1 .329.195L8 7V.5a.5 0 0 1 .5-.5a.5 0 0 1 .5.5V7l2.1-2.8a.501.501 0 0 1 .895.229a.5 0 0 1-.095.371l-3 4c-.006.008-.017.012-.024.02a.5 0 0 1-.116.1a.3 0 0 1-.05.034a.47 0 0 1-.42 0a.3 0 0 1-.05-.034a.5 0 0 1-.116-.1c-.007-.008-.018-.012-.024-.02zm.65 9.95a1.245 1.245 0 0 1-.772 1.154a1.252 1.252 0 0 1-1.704-.91a1.25 0 1 1 2.475-.245zm8 0a1.245 1.245 0 0 1-.772 1.154a1.252 1.252 0 0 1-1.704-.91a1.249 0 1 1 2.475-.245zM14 5.5a.5 0 0 0-.5.5l-.5 4H4.09l-1.1-6.58a.5 0 0 0-.49-.418h-1a.5 0 0 0-.5.5a.5 0 0 0 .5.5h.576l1.43 8.58a.496.496 0 0 0 .493.418h9a.5 0 0 0 0-1h-8.58l-.167-1h8.74a1 1 0 0 0 .992-.876l.508-4.12a.5 0 0 0-.5-.5z"/></svg>